<svg width="1367" height="261" viewBox="0 0 1367 261" fill="none" xmlns="http://www.w3.org/2000/svg">
<path d="M239.49 30.3248V9.48974C239.49 7.95548 240.733 6.71173 242.267 6.71173H264.487C266.021 6.71173 267.265 7.95548 267.265 9.48974V30.3248C267.265 31.8591 266.021 33.1029 264.487 33.1029H242.267C240.733 33.1029 239.49 31.8591 239.49 30.3248Z" fill="#F9F9F9"/>
<path d="M91.3696 256.733L0 4.26704H33.4192L111.634 223.308L189.494 4.26704H222.913L131.544 256.733H91.3696Z" fill="white"/>
<path d="M238.39 257.089V68.6281H268.254V257.089H238.39Z" fill="white"/>
<path d="M364.379 261C347.55 261 333.211 258.274 321.36 252.822C309.747 247.369 300.621 239.902 293.985 230.42C287.586 220.7 283.912 209.677 282.964 197.35L314.25 195.217C316.146 206.595 321.005 215.722 328.826 222.597C336.648 229.234 348.498 232.553 364.379 232.553C377.177 232.553 387.369 230.538 394.954 226.508C402.775 222.241 406.686 215.485 406.686 206.24C406.686 201.262 405.501 197.113 403.131 193.794C400.76 190.475 396.139 187.631 389.265 185.26C382.392 182.653 372.2 180.163 358.69 177.793C340.677 174.474 326.456 170.444 316.027 165.703C305.836 160.725 298.488 154.68 293.985 147.568C289.719 140.219 287.586 131.567 287.586 121.61C287.586 104.779 293.748 91.03 306.073 80.3624C318.398 69.4578 335.937 64.0054 358.69 64.0054C374.096 64.0054 387.014 66.8501 397.442 72.5395C408.108 77.9918 416.404 85.3406 422.329 94.5858C428.491 103.594 432.521 113.55 434.417 124.455L403.131 126.589C401.708 119.951 399.101 114.143 395.309 109.165C391.517 103.95 386.54 99.9196 380.377 97.0749C374.215 93.9932 366.867 92.4523 358.335 92.4523C344.825 92.4523 334.87 95.06 328.471 100.275C322.071 105.49 318.872 112.128 318.872 120.188C318.872 126.352 320.294 131.448 323.138 135.478C326.219 139.271 331.078 142.471 337.714 145.079C344.351 147.45 353.239 149.583 364.379 151.48C383.577 154.798 398.509 158.828 409.175 163.569C419.84 168.311 427.306 174.119 431.573 180.993C435.839 187.868 437.972 196.283 437.972 206.24C437.972 217.856 434.654 227.812 428.017 236.109C421.618 244.169 412.848 250.332 401.708 254.599C390.806 258.866 378.362 261 364.379 261Z" fill="white"/>
<path d="M514.64 261C495.916 261 480.865 254.718 469.489 242.154C458.349 229.353 452.779 211.811 452.779 189.527V68.2725H482.643V181.349C482.643 199.602 485.843 213.114 492.242 221.886C498.879 230.42 508.952 234.687 522.462 234.687C537.394 234.687 549.126 229.945 557.658 220.463C566.191 210.744 570.457 197.469 570.457 180.638V68.2725H600.321V256.733H571.879V210.151L576.501 212.64C572.709 228.049 565.48 240.02 554.814 248.554C544.149 256.852 530.757 261 514.64 261Z" fill="white"/>
<path d="M675.406 261C655.971 261 640.446 256.496 628.833 247.488C617.456 238.48 611.768 225.916 611.768 209.796C611.768 193.676 616.508 180.993 625.989 171.748C635.469 162.503 650.52 155.984 671.14 152.191L737.978 139.745C737.978 123.862 734.186 112.01 726.602 104.187C719.254 96.3638 708.114 92.4523 693.182 92.4523C680.147 92.4523 669.836 95.4155 662.252 101.342C654.667 107.031 649.453 115.328 646.609 126.233L614.967 123.744C618.522 105.965 627.055 91.6226 640.565 80.718C654.312 69.5763 671.851 64.0054 693.182 64.0054C717.358 64.0054 735.845 70.8801 748.644 84.6294C761.443 98.1417 767.842 116.869 767.842 140.812V218.685C767.842 222.952 768.554 226.034 769.976 227.93C771.635 229.59 774.242 230.42 777.797 230.42H787.674V256.733C786.726 256.97 782.774 257.089 780.641 257.089C778.508 257.326 776.257 257.444 773.886 257.444C765.354 257.444 758.362 256.14 752.91 253.533C747.696 250.688 743.904 246.421 741.534 240.732C739.164 234.805 737.978 227.101 737.978 217.619L741.534 218.33C739.875 226.39 735.845 233.738 729.446 240.376C723.046 246.777 715.106 251.873 705.626 255.666C696.145 259.222 686.072 261 675.406 261ZM678.25 234.687C690.812 234.687 701.478 232.316 710.248 227.575C719.254 222.597 726.128 215.959 730.868 207.662C735.608 199.128 737.978 189.646 737.978 179.215V165.703L676.828 177.082C664.03 179.452 655.141 183.127 650.164 188.105C645.424 192.846 643.054 199.128 643.054 206.951C643.054 215.722 646.135 222.597 652.297 227.575C658.697 232.316 667.348 234.687 678.25 234.687Z" fill="white"/>
<path d="M787.674 256.733V230.42H828.204V27.0245H787.674V0H828.204V13.5123H841.714V27.0245H855.224V230.42H895.753V256.733H787.674Z" fill="white"/>
<path d="M898.775 229.708V202.684H885.265V121.61H898.775V94.5858H912.285V81.0736H925.795V67.5613H1006.85V81.0736H1020.36V94.5858H1033.87V121.61H1047.38V175.659H912.285V202.684H925.795V216.196H939.305V229.708H1006.85V216.196H1020.36V202.684H1047.38V229.708H1033.87V243.221H1006.85V256.733H925.795V243.221H912.285V229.708H898.775ZM912.285 121.61V148.635H1020.36V121.61H1006.85V108.098H993.345V94.5858H939.305V108.098H925.795V121.61H912.285Z" fill="white"/>
<path d="M1058.85 228.642V201.617H1085.87V215.129H1099.38V228.642H1180.44V188.105H1153.42V174.593H1099.38V161.08H1072.36V134.056H1058.85V107.031H1072.36V80.0068H1085.87V66.4946H1180.44V80.0068H1193.95V93.5191H1207.46V120.544H1180.44V93.5191H1099.38V107.031H1085.87V134.056H1099.38V147.568H1153.42V161.08H1193.95V174.593H1207.46V228.642H1193.95V242.154H1180.44V255.666H1085.87V242.154H1072.36V228.642H1058.85Z" fill="white"/>
<path d="M1218.39 228.642V201.617H1245.41V215.129H1258.92V228.642H1339.98V188.105H1312.96V174.593H1258.92V161.08H1231.9V134.056H1218.39V107.031H1231.9V80.0068H1245.41V66.4946H1339.98V80.0068H1353.49V93.5191H1367V120.544H1339.98V93.5191H1258.92V107.031H1245.41V134.056H1258.92V147.568H1312.96V161.08H1353.49V174.593H1367V228.642H1353.49V242.154H1339.98V255.666H1245.41V242.154H1231.9V228.642H1218.39Z" fill="white"/>
</svg>
